<svg width="16" height="29" viewBox="0 0 16 29" fill="none" xmlns="http://www.w3.org/2000/svg">
<path d="M11.1001 29H4.33518V16.9729H0.240556L0.179431 16.2278C0.175739 16.1815 0.0858944 15.0826 0.0346142 13.9199C0.00384602 13.2277 -0.00641003 12.6568 0.00384602 12.2238C0.0231274 11.4111 0.10887 11.0494 0.343938 10.7894C0.508035 10.6085 0.738593 10.5043 0.976533 10.5043H4.33518V6.33901C4.33518 4.97711 5.02316 3.42267 6.17553 2.18079C7.48092 0.774717 9.1666 0 10.9228 0C14.3722 0 15.4499 0.585934 15.6308 0.703455L16 0.943079V6.31776H13.0811C12.7369 6.31776 12.2319 6.40319 11.8459 6.6424C11.4274 6.90202 11.2322 7.28459 11.2322 7.84594V10.5581H15.9221L14.9317 17.0267H11.1001V29ZM5.93513 27.3747H9.50013V15.4014H13.5615L14.0542 12.1834H9.63223V7.84594C9.63223 6.41236 10.3826 5.64597 11.0119 5.25549C11.8311 4.74707 12.7316 4.69248 13.0811 4.69248H14.4001V1.95409C13.8914 1.81656 12.8391 1.62528 10.9224 1.62528C9.15347 1.62528 7.91823 2.67213 7.33938 3.29598C6.48608 4.21531 5.93472 5.4101 5.93472 6.33901V12.1296H1.60379C1.57959 12.8243 1.63128 14.1095 1.71702 15.3476H5.93472V27.3747H5.93513Z" fill="black"/>
</svg>
