<svg xmlns="http://www.w3.org/2000/svg" viewBox="0 0 1965.76 1979.75"><defs><style>.cls-1{fill:#ffd400;}.cls-2{fill:#21bbbb;}.cls-3{fill:none;stroke:#fff;stroke-miterlimit:10;stroke-width:21.36px;}.cls-4{fill:#007a77;}.cls-5{fill:#fff;}.cls-6{fill:#e8a000;}</style></defs><g id="Calque_4" data-name="Calque 4"><polygon class="cls-1" points="850.05 1430.57 524.14 1243.22 284.09 1660.4 545.46 1589.33 608.64 1848.78 850.05 1430.57"/><polygon class="cls-1" points="1115.7 1436.27 1441.62 1248.92 1681.67 1666.1 1420.3 1595.02 1357.11 1854.47 1115.7 1436.27"/><polygon class="cls-1" points="850.05 1485.39 992.69 1718.27 1115.7 1485.39 850.05 1485.39"/><path class="cls-2" d="M1637.71,1160.82v-616a111.55,111.55,0,0,0-55.78-96.61l-533.46-308a111.55,111.55,0,0,0-111.56,0l-533.46,308a111.53,111.53,0,0,0-55.78,96.61v616a111.56,111.56,0,0,0,55.78,96.61l533.46,308a111.55,111.55,0,0,0,111.56,0l533.46-308A111.58,111.58,0,0,0,1637.71,1160.82Z"/><path class="cls-3" d="M1551.29,1110.57V595.08a112.17,112.17,0,0,0-56.09-97.15L1048.78,240.19a112.18,112.18,0,0,0-112.18,0L490.17,497.93a112.2,112.2,0,0,0-56.09,97.15v515.49a112.18,112.18,0,0,0,56.09,97.14L936.6,1465.46a112.18,112.18,0,0,0,112.18,0l446.42-257.75A112.16,112.16,0,0,0,1551.29,1110.57Z"/><polygon class="cls-1" points="989.52 1232.24 989.52 1234.5 988.41 1233.36 989.52 1232.24"/><path class="cls-4" d="M1263,645.24a68.89,68.89,0,0,0-16.77-16.9,48.34,48.34,0,0,0-27.66-9H747.92a47.4,47.4,0,0,0-24.43,6.93c-22.57,13.42-38.41,44.87-38.41,81.53,0,21,5.32,41.33,15,57.33l282.4,466.92.79,1.31.79-1.31,282.4-466.92c9.68-16,15-36.33,15-57.33C1281.44,683.36,1274.41,661.26,1263,645.24ZM983.26,1045.33,845.43,823l-47.49-76.6h370.64Z"/><polygon class="cls-1" points="988.41 1233.36 987.28 1234.5 987.28 1232.24 988.41 1233.36"/><circle class="cls-5" cx="983.82" cy="1186.09" r="145.25"/><circle class="cls-6" cx="983.82" cy="1186.09" r="119.62"/><path class="cls-6" d="M1246.27,628.34l-77.9,118H797.94l-74.45-120.1a47.4,47.4,0,0,1,24.43-6.93h470.69A48.34,48.34,0,0,1,1246.27,628.34Z"/><path class="cls-1" d="M983.82,1066.47V1305.7a119.62,119.62,0,0,1,0-239.23Z"/><path class="cls-1" d="M983.66,619.34v127H797.94l-74.45-120.1a47.4,47.4,0,0,1,24.43-6.93Z"/><polygon class="cls-1" points="871.98 374.25 889.57 428.38 946.49 428.38 900.44 461.83 918.03 515.96 871.98 482.51 825.94 515.96 843.52 461.83 797.48 428.38 854.39 428.38 871.98 374.25"/><polygon class="cls-1" points="1098.51 374.25 1080.92 428.38 1024 428.38 1070.05 461.83 1052.46 515.96 1098.51 482.51 1144.55 515.96 1126.97 461.83 1173.01 428.38 1116.1 428.38 1098.51 374.25"/></g></svg>