<svg xmlns="http://www.w3.org/2000/svg" viewBox="0 0 1965.76 1979.75"><defs><style>.cls-1{fill:#ffd400;}.cls-2{fill:#21bbbb;}.cls-3{fill:none;stroke:#fff;stroke-miterlimit:10;stroke-width:21.36px;}.cls-4{fill:#007a77;}.cls-5{fill:#fff;}.cls-6{fill:#e8a000;}</style></defs><g id="Calque_4" data-name="Calque 4"><polygon class="cls-1" points="850.05 1430.57 524.14 1243.22 284.09 1660.4 545.46 1589.33 608.64 1848.78 850.05 1430.57"/><polygon class="cls-1" points="1115.7 1436.27 1441.62 1248.92 1681.67 1666.1 1420.3 1595.02 1357.11 1854.47 1115.7 1436.27"/><polygon class="cls-1" points="850.05 1485.39 992.69 1718.27 1115.7 1485.39 850.05 1485.39"/><path class="cls-2" d="M1637.71,1160.82v-616a111.55,111.55,0,0,0-55.78-96.61l-533.46-308a111.55,111.55,0,0,0-111.56,0l-533.46,308a111.53,111.53,0,0,0-55.78,96.61v616a111.56,111.56,0,0,0,55.78,96.61l533.46,308a111.55,111.55,0,0,0,111.56,0l533.46-308A111.58,111.58,0,0,0,1637.71,1160.82Z"/><path class="cls-3" d="M1551.29,1110.57V595.08a112.17,112.17,0,0,0-56.09-97.15L1048.78,240.19a112.18,112.18,0,0,0-112.18,0L490.17,497.93a112.2,112.2,0,0,0-56.09,97.15v515.49a112.18,112.18,0,0,0,56.09,97.14L936.6,1465.46a112.18,112.18,0,0,0,112.18,0l446.42-257.75A112.16,112.16,0,0,0,1551.29,1110.57Z"/><polygon class="cls-1" points="989.52 1232.24 989.52 1234.5 988.41 1233.36 989.52 1232.24"/><path class="cls-4" d="M1263,645.24a68.89,68.89,0,0,0-16.77-16.9,48.34,48.34,0,0,0-27.66-9H747.92a47.4,47.4,0,0,0-24.43,6.93c-22.57,13.42-38.41,44.87-38.41,81.53,0,21,5.32,41.33,15,57.33l282.4,466.92.79,1.31.79-1.31,282.4-466.92c9.68-16,15-36.33,15-57.33C1281.44,683.36,1274.41,661.26,1263,645.24ZM983.26,1045.33,845.43,823l-47.49-76.6h370.64Z"/><polygon class="cls-1" points="988.41 1233.36 987.28 1234.5 987.28 1232.24 988.41 1233.36"/><circle class="cls-5" cx="983.82" cy="1186.09" r="145.25"/><circle class="cls-6" cx="983.82" cy="1186.09" r="119.62"/><path class="cls-6" d="M1246.27,628.34l-77.9,118H797.94l-74.45-120.1a47.4,47.4,0,0,1,24.43-6.93h470.69A48.34,48.34,0,0,1,1246.27,628.34Z"/><path class="cls-1" d="M983.82,1066.47V1305.7a119.62,119.62,0,0,1,0-239.23Z"/><path class="cls-1" d="M983.66,619.34v127H797.94l-74.45-120.1a47.4,47.4,0,0,1,24.43-6.93Z"/><polygon class="cls-1" points="985.25 306.04 1002.83 360.17 1059.75 360.17 1013.7 393.63 1031.29 447.76 985.25 414.3 939.2 447.76 956.79 393.63 910.74 360.17 967.66 360.17 985.25 306.04"/><polygon class="cls-1" points="781.62 414.26 799.2 468.39 856.12 468.39 810.07 501.85 827.66 555.98 781.62 522.52 735.57 555.98 753.16 501.85 707.11 468.39 764.03 468.39 781.62 414.26"/><polygon class="cls-1" points="577.98 522.49 595.57 576.62 652.49 576.62 606.44 610.07 624.03 664.2 577.98 630.75 531.94 664.2 549.52 610.07 503.48 576.62 560.39 576.62 577.98 522.49"/><polygon class="cls-1" points="985.25 306.04 967.66 360.17 910.74 360.17 956.79 393.63 939.2 447.76 985.25 414.3 1031.29 447.76 1013.7 393.63 1059.75 360.17 1002.83 360.17 985.25 306.04"/><polygon class="cls-1" points="1188.88 414.26 1171.29 468.39 1114.37 468.39 1160.42 501.85 1142.83 555.98 1188.88 522.52 1234.92 555.98 1217.34 501.85 1263.38 468.39 1206.46 468.39 1188.88 414.26"/><polygon class="cls-1" points="1392.51 522.49 1374.92 576.62 1318 576.62 1364.05 610.07 1346.46 664.2 1392.51 630.75 1438.55 664.2 1420.97 610.07 1467.01 576.62 1410.1 576.62 1392.51 522.49"/></g></svg>