<svg xmlns="http://www.w3.org/2000/svg" viewBox="0 0 1965.76 1979.75"><defs><style>.cls-1{fill:#e64f60;}.cls-2{fill:#742457;}.cls-3{font-size:311.6px;font-family:Poppins-SemiBold, Poppins;font-weight:600;}.cls-3,.cls-4{fill:#fff;}</style></defs><g id="Calque_4" data-name="Calque 4"><path class="cls-1" d="M1036.6,163.64l96,46.25a123.87,123.87,0,0,0,53.73,12.26H1293a123.81,123.81,0,0,1,96.8,46.62l66.47,83.34a123.65,123.65,0,0,0,43.08,34.36l96,46.25a123.81,123.81,0,0,1,67,84l23.72,103.92A123.89,123.89,0,0,0,1710,670.3l66.47,83.34a123.86,123.86,0,0,1,23.91,104.76l-23.72,103.92a123.82,123.82,0,0,0,0,55.11l23.72,103.92a123.86,123.86,0,0,1-23.91,104.76L1710,1309.45a123.89,123.89,0,0,0-23.91,49.65L1662.35,1463a123.81,123.81,0,0,1-67,84l-96,46.25a123.77,123.77,0,0,0-43.08,34.36L1389.77,1711a123.81,123.81,0,0,1-96.8,46.62h-106.6a123.87,123.87,0,0,0-53.73,12.26l-96,46.25a123.82,123.82,0,0,1-107.45,0l-96-46.25a123.82,123.82,0,0,0-53.72-12.26H672.79A123.84,123.84,0,0,1,576,1711l-66.46-83.34a123.86,123.86,0,0,0-43.08-34.36l-96-46.25a123.85,123.85,0,0,1-67-84L279.68,1359.1a123.76,123.76,0,0,0-23.91-49.65l-66.46-83.34a123.86,123.86,0,0,1-23.91-104.76l23.72-103.92a123.82,123.82,0,0,0,0-55.11L165.4,858.4a123.86,123.86,0,0,1,23.91-104.76l66.46-83.34a123.76,123.76,0,0,0,23.91-49.65L303.4,516.73a123.85,123.85,0,0,1,67-84l96-46.25a123.74,123.74,0,0,0,43.08-34.36L576,268.77a123.84,123.84,0,0,1,96.81-46.62h106.6a123.82,123.82,0,0,0,53.72-12.26l96-46.25A123.82,123.82,0,0,1,1036.6,163.64Z"/><path class="cls-2" d="M1654,697.41C1541.13,438.76,1283.12,258,982.88,258S424.63,438.76,311.76,697.41Z"/><path class="cls-2" d="M313.5,1286.28c113.77,256.54,370.67,435.49,669.38,435.49s555.61-179,669.38-435.49Z"/><text class="cls-3" transform="translate(273.39 1107.74)">PREMIUM</text><polygon class="cls-4" points="1552.06 592.53 1548.86 680.79 1611.86 742.67 1523.61 739.46 1461.73 802.47 1464.93 714.21 1401.93 652.33 1490.18 655.54 1552.06 592.53"/></g></svg>