<svg xmlns="http://www.w3.org/2000/svg" viewBox="0 0 1965.76 1979.75"><defs><style>.cls-1{fill:#ffd400;}.cls-2{fill:#21bbbb;}.cls-3{fill:none;stroke:#fff;stroke-miterlimit:10;stroke-width:21.36px;}.cls-4{fill:#007a77;}.cls-5{fill:#fff;}.cls-6{fill:#e8a000;}</style></defs><g id="Calque_4" data-name="Calque 4"><polygon class="cls-1" points="850.05 1430.57 524.14 1243.22 284.09 1660.4 545.46 1589.33 608.64 1848.78 850.05 1430.57"/><polygon class="cls-1" points="1115.7 1436.27 1441.62 1248.92 1681.67 1666.1 1420.3 1595.02 1357.11 1854.47 1115.7 1436.27"/><polygon class="cls-1" points="850.05 1485.39 992.69 1718.27 1115.7 1485.39 850.05 1485.39"/><path class="cls-2" d="M1637.71,1160.82v-616a111.55,111.55,0,0,0-55.78-96.61l-533.46-308a111.55,111.55,0,0,0-111.56,0l-533.46,308a111.53,111.53,0,0,0-55.78,96.61v616a111.56,111.56,0,0,0,55.78,96.61l533.46,308a111.55,111.55,0,0,0,111.56,0l533.46-308A111.58,111.58,0,0,0,1637.71,1160.82Z"/><path class="cls-3" d="M1551.29,1110.57V595.08a112.17,112.17,0,0,0-56.09-97.15L1048.78,240.19a112.18,112.18,0,0,0-112.18,0L490.17,497.93a112.2,112.2,0,0,0-56.09,97.15v515.49a112.18,112.18,0,0,0,56.09,97.14L936.6,1465.46a112.18,112.18,0,0,0,112.18,0l446.42-257.75A112.16,112.16,0,0,0,1551.29,1110.57Z"/><polygon class="cls-1" points="989.52 1202.24 989.52 1204.5 988.41 1203.36 989.52 1202.24"/><path class="cls-4" d="M1263,615.24a68.89,68.89,0,0,0-16.77-16.9,48.34,48.34,0,0,0-27.66-9H747.92a47.4,47.4,0,0,0-24.43,6.93c-22.57,13.42-38.41,44.87-38.41,81.53,0,21,5.32,41.33,15,57.33l282.4,466.92.79,1.31.79-1.31,282.4-466.92c9.68-16,15-36.33,15-57.33C1281.44,653.36,1274.41,631.26,1263,615.24ZM983.26,1015.33,845.43,793l-47.49-76.6h370.64Z"/><polygon class="cls-1" points="988.41 1203.36 987.28 1204.5 987.28 1202.24 988.41 1203.36"/><circle class="cls-5" cx="983.82" cy="1156.09" r="145.25"/><circle class="cls-6" cx="983.82" cy="1156.09" r="119.62"/><path class="cls-6" d="M1246.27,598.34l-77.9,118H797.94l-74.45-120.1a47.4,47.4,0,0,1,24.43-6.93h470.69A48.34,48.34,0,0,1,1246.27,598.34Z"/><path class="cls-1" d="M983.82,1036.47V1275.7a119.62,119.62,0,0,1,0-239.23Z"/><path class="cls-1" d="M983.66,589.34v127H797.94l-74.45-120.1a47.4,47.4,0,0,1,24.43-6.93Z"/><polygon class="cls-1" points="985.25 336.04 1002.83 390.17 1059.75 390.17 1013.7 423.63 1031.29 477.76 985.25 444.3 939.2 477.76 956.79 423.63 910.74 390.17 967.66 390.17 985.25 336.04"/></g></svg>