<svg xmlns="http://www.w3.org/2000/svg" viewBox="0 0 1965.76 1979.75"><defs><style>.cls-1{fill:#742457;}.cls-2{fill:#3a2154;}.cls-3{fill:#6a2150;}.cls-4{fill:#ffd400;}.cls-5{fill:none;stroke:#fff3d7;stroke-miterlimit:10;stroke-width:15.29px;}.cls-6{fill:#fff;}</style></defs><g id="Calque_4" data-name="Calque 4"><path class="cls-1" d="M333.55,260.12c37.71-38.76,77.79-40.89,400-49.93,265.16-7.43,247.49-6.21,492.35-8.3,324-2.78,361.13-4.91,399.91,31.6,50.66,47.8,24.86,86.6,27.37,486,.93,146.49-6.83,293-3.44,439.38,2,83.44,4.46,113.82-11,160-27.32,82.56-85,137.41-269.32,262.78-189.6,128.89-284.41,193.38-335,197.29-77.84,6-194.33-66.18-427.36-210.63C425.89,1456,354.3,1396.16,326.72,1302c-12.45-42.46-9.55-70.14-6.83-136.5,6.38-156.44-5.27-312.88-6.88-469.32C309.4,332.52,291.9,302.75,333.55,260.12Z"/><path class="cls-1" d="M414.74,859.34v304H25.33l41.86-37,18.17-16.07,105.91-93.64L101.33,923.2,85.87,907.14,43.25,862.86C175.26,856.8,221.19,865,414.74,859.34Z"/><path class="cls-2" d="M315.87,861l98.87-1.6-99.8-29.21Z"/><path class="cls-2" d="M1561.31,871.52l89.46-32.11v32.11Z"/><path class="cls-3" d="M1884.16,1122l39.14,40.67c-127.94,5.89-172.45-2.1-360,3.43l-.07-240.85V871.51h377.24l-42.56,37.68-18.16,16.07-99.83,88.38,88.83,92.31Z"/><polygon class="cls-4" points="412.86 907.14 412.86 923.21 101.33 923.2 85.87 907.14 412.86 907.14"/><polygon class="cls-4" points="414.73 1110.27 414.73 1126.34 67.19 1126.34 85.36 1110.27 414.73 1110.27"/><polygon class="cls-4" points="1884.16 1122.01 1566.12 1122.02 1566.12 1105.95 1868.71 1105.95 1884.16 1122.01"/><polygon class="cls-4" points="1897.87 909.19 1879.71 925.26 1563.19 925.26 1563.19 909.19 1897.87 909.19"/><path class="cls-4" d="M988,328.56l100.57,203.8,224.9,32.69L1150.76,723.68l38.4,224L988,841.91,786.86,947.64l38.44-224L662.52,565.05l224.9-32.69Z"/><path class="cls-5" d="M988,387.62l81.37,164.91,182,26.44L1119.69,707.33l31.12,181.24L988,803,825.25,888.57l31.07-181.24L724.65,579l182-26.44Z"/><path class="cls-6" d="M645.91,1325.64H607.67L521.08,1194.8v130.84H482.84V1134.71h38.24l86.59,131.11V1134.71h38.24Zm126.29,1.92A98.77,98.77,0,0,1,723,1315a94.15,94.15,0,0,1-35.51-34.69q-13.11-22.4-13.11-50.53,0-27.87,13.11-50a93.55,93.55,0,0,1,35.51-35,98.77,98.77,0,0,1,49.17-12.57q27,0,49.17,12.57a91.52,91.52,0,0,1,35.23,35q13.13,22.13,13.12,50,0,28.14-13.12,50.53A92.08,92.08,0,0,1,821.37,1315,98.77,98.77,0,0,1,772.2,1327.56Zm0-34.15q17.2,0,30.32-7.65A54.3,54.3,0,0,0,823,1263.37q7.37-14.47,7.37-33.6T823,1196.44a52.5,52.5,0,0,0-20.49-22.12q-13.11-7.65-30.32-7.65t-30.59,7.65a52.5,52.5,0,0,0-20.49,22.12q-7.38,14.2-7.37,33.33t7.37,33.6a54.3,54.3,0,0,0,20.49,22.39Q755,1293.41,772.2,1293.41ZM1069.43,1135,999.5,1325.64H953.07L883.14,1135h41l52.45,151.6,52.17-151.6Zm61.17,0v190.66h-38.24V1135Zm28.49,95.06q0-28.12,12.57-50.26a90.74,90.74,0,0,1,34.69-34.69q22.13-12.55,49.44-12.56,31.95,0,56,16.39t33.6,45.34h-44q-6.56-13.66-18.57-20.49-11.74-6.82-27.31-6.83a56.46,56.46,0,0,0-29.78,7.92,53.43,53.43,0,0,0-20.21,21.86q-7.11,14.21-7.1,33.32,0,18.86,7.1,33.33a55.3,55.3,0,0,0,20.21,22.12,58,58,0,0,0,29.78,7.65q15.57,0,27.31-6.83a46.94,46.94,0,0,0,18.57-20.76h44q-9.56,29.23-33.6,45.62-23.76,16.11-56,16.11-27.32,0-49.44-12.29a93.29,93.29,0,0,1-34.69-34.69Q1159.09,1258.18,1159.09,1230Zm257.2-64.19v47.8h64.19V1244h-64.19v50.53h72.38v31.14H1378V1134.71h110.63v31.14Z"/></g></svg>