<svg width="30" height="29" viewBox="0 0 30 29" fill="none" xmlns="http://www.w3.org/2000/svg">
<path d="M21.9484 0H8.05206C3.61202 0 0 3.49161 0 7.78366V21.2163C0 25.5084 3.61202 29 8.05206 29H21.9479C26.388 29 30 25.5084 30 21.2163V7.78366C30.0005 3.49161 26.388 0 21.9484 0ZM27.7918 21.2168C27.7918 24.3317 25.1702 26.8654 21.9484 26.8654H8.05206C4.83025 26.8654 2.20873 24.3312 2.20873 21.2168V7.78366C2.20873 4.66877 4.83025 2.13511 8.05206 2.13511H21.9479C25.1702 2.13511 27.7913 4.66925 27.7913 7.78366V21.2168H27.7918Z" fill="black"/>
<path d="M21.6508 13.4972C21.4398 12.1203 20.7899 10.8719 19.7714 9.88788C18.753 8.90383 17.4621 8.27516 16.0377 8.07114C15.3893 7.97814 14.7316 7.97814 14.0832 8.07114C10.4491 8.5921 7.93118 11.874 8.47011 15.387C8.95996 18.5811 11.8112 20.8832 15.0565 20.8832C15.3805 20.8832 15.7084 20.8605 16.0382 20.813C19.6718 20.292 22.1898 17.0101 21.6508 13.4972ZM15.7133 18.7011C13.2842 19.0494 11.0146 17.422 10.6543 15.0738C10.294 12.7252 11.9776 10.5317 14.4067 10.1835C14.6236 10.1522 14.8416 10.137 15.06 10.137C15.2784 10.137 15.4963 10.1526 15.7133 10.1835C17.6678 10.4639 19.1761 11.9215 19.4657 13.8108C19.8264 16.1589 18.1429 18.3529 15.7133 18.7011Z" fill="black"/>
<path d="M22.6562 6.04478H22.6425C22.0324 6.04478 21.5381 6.52257 21.5381 7.11234C21.5381 7.7021 22.0324 8.17989 22.6425 8.17989H22.6562C23.2663 8.17989 23.7606 7.7021 23.7606 7.11234C23.7606 6.52257 23.2663 6.04478 22.6562 6.04478Z" fill="black"/>
</svg>
