<svg width="100%" height="100%" viewBox="0 0 411 600" fill="none" xmlns="http://www.w3.org/2000/svg">
<rect x="5" width="406" height="599" fill="#B1EDE8" fill-opacity="0.46"/>
<path d="M288.876 0.241699H47.1104V599.5H304.521C301.509 587.027 321.478 520.83 317.413 449.219C313.787 385.347 298.437 354.208 298.437 290.866C298.437 227.525 308.432 118.23 309.446 89.0437C310.46 59.8571 304.617 14.3175 288.876 0.241699Z" fill="#AFEDE8" fill-opacity="0.43"/>
<path d="M140.978 0H0V599.258H196.458C199.404 591.599 206.309 546.474 197.472 501.141C188.636 455.809 164.487 496.785 157.782 355.829C153.291 261.438 167.922 183.814 169.225 126.683C170.268 80.9775 150.828 23.1837 140.978 0Z" fill="#AFEDE8"/>
</svg>