<svg width="37" height="29" viewBox="0 0 37 29" fill="none" xmlns="http://www.w3.org/2000/svg">
<path d="M13.5428 29C12.1771 29 10.8145 28.8786 9.4891 28.635C4.97149 27.8047 2.2677 25.7815 2.15498 25.6957L0 24.0594L2.7001 24.1852C6.22643 24.3497 8.526 23.6674 9.83395 23.0659C10.1194 22.9347 10.3714 22.8015 10.5914 22.6726C9.92284 22.4543 9.30627 22.1778 8.7474 21.8447C7.91412 21.3485 7.20832 20.7278 6.64911 20.0001C5.6954 18.7591 5.4948 17.6402 5.47534 17.5167L5.29487 16.3863L5.77692 16.4566C4.57665 15.4854 3.92519 14.3819 3.57263 13.4716C2.94096 11.8423 3.10936 10.4613 3.11708 10.4034L3.25763 9.31513L4.18417 9.69899C2.97987 7.88165 2.81986 6.17803 2.96377 4.9242C3.18316 3.01401 4.14391 1.7299 4.18484 1.67608L4.80476 0.859588L5.48138 1.62965C8.28313 4.81856 11.8105 6.47677 14.2761 7.30604C15.7786 7.81134 17.0694 8.07745 17.9158 8.21404C17.8293 7.011 18.051 5.74439 18.5636 4.60157C19.1476 3.2993 20.3958 1.53007 23.0258 0.496928C24.955 -0.260686 27.0141 -0.150341 28.9809 0.816526C29.8685 1.25286 30.5495 1.77296 30.954 2.12116C30.954 2.12116 33.8132 1.08297 35.524 0.477416C35.3227 1.82309 34.1486 3.70704 34.1486 3.70704L37 2.52957C37 2.52957 35.8715 5.49005 33.3381 8.25003C33.268 11.9318 32.6129 15.2179 31.3891 18.0227C30.2399 20.6572 28.5871 22.8799 26.4774 24.6292C25.2707 25.6294 23.9101 26.4765 22.4331 27.147C21.0661 27.7674 19.5928 28.2397 18.0533 28.5516C16.577 28.8503 15.058 29 13.5428 29ZM5.83026 25.7936C6.88225 26.2404 8.21905 26.6912 9.79168 26.9801C14.2308 27.796 20.6642 27.2661 25.4083 23.3327C29.5062 19.9349 31.6115 14.7258 31.6659 7.84969L31.6689 7.46012C31.6689 7.46012 34.2365 5.72521 34.5508 4.68231C34.1664 4.77079 31.376 5.38879 31.376 5.38879C31.4465 5.35145 32.8363 3.7141 33.5109 2.79837L30.5401 4.07508L30.157 3.67037C30.1513 3.66431 29.3948 2.88247 28.1942 2.30316C26.6552 1.56068 25.1221 1.47961 23.6374 2.06262C19.8403 3.5543 19.2211 7.01369 19.7313 8.97535L20.0248 10.1037L18.8645 10.0267C18.7742 10.0206 16.6216 9.86888 13.7424 8.90067C12.0533 8.33245 10.4596 7.59839 9.00537 6.71865C7.53136 5.82681 6.19826 4.78257 5.02986 3.60577C4.85475 4.02327 4.68534 4.56389 4.62227 5.18694C4.42637 7.12606 5.31801 8.96055 7.27306 10.6393L9.26132 12.3463L6.65381 12.1155C6.61389 12.1121 5.89634 12.0448 4.83126 11.7205C4.88628 12.0765 4.98625 12.4929 5.16337 12.932C5.82623 14.574 7.22778 15.7643 9.32875 16.4697L12.2244 17.442L9.23952 18.0893C9.19524 18.099 8.46025 18.2555 7.53137 18.2837C7.65783 18.5189 7.82154 18.7779 8.03254 19.0434C9.03086 20.2979 10.5706 21.1016 12.6095 21.4313L14.0379 21.6624L13.1278 22.7904C13.0322 22.9091 11.056 25.2779 5.83026 25.7936Z" fill="black"/>
</svg>
